<svg xmlns="http://www.w3.org/2000/svg" viewBox="0 0 560 420" fill="none" role="img" aria-hidden="true"><defs><linearGradient id="g" x1="0" y1="0" x2="560" y2="420" gradientUnits="userSpaceOnUse"><stop stop-color="#00F2FE"/><stop offset=".55" stop-color="#4EA8FF"/><stop offset="1" stop-color="#9D4EDD"/></linearGradient><linearGradient id="gv" x1="0" y1="0" x2="0" y2="420" gradientUnits="userSpaceOnUse"><stop stop-color="#00F2FE" stop-opacity=".55"/><stop offset="1" stop-color="#9D4EDD" stop-opacity=".08"/></linearGradient><radialGradient id="glow" cx="50%" cy="45%" r="55%"><stop stop-color="#00F2FE" stop-opacity=".20"/><stop offset="1" stop-color="#00F2FE" stop-opacity="0"/></radialGradient></defs><rect width="560" height="420" rx="22" fill="#0C1220"/><rect width="560" height="420" rx="22" fill="url(#glow)"/><g stroke="#fff" stroke-opacity="0.05" stroke-width="1"><path d="M40 0V420"/><path d="M80 0V420"/><path d="M120 0V420"/><path d="M160 0V420"/><path d="M200 0V420"/><path d="M240 0V420"/><path d="M280 0V420"/><path d="M320 0V420"/><path d="M360 0V420"/><path d="M400 0V420"/><path d="M440 0V420"/><path d="M480 0V420"/><path d="M520 0V420"/><path d="M0 40H560"/><path d="M0 80H560"/><path d="M0 120H560"/><path d="M0 160H560"/><path d="M0 200H560"/><path d="M0 240H560"/><path d="M0 280H560"/><path d="M0 320H560"/><path d="M0 360H560"/><path d="M0 400H560"/></g><rect x="120" y="118" width="320" height="196" rx="16" fill="#0B0F17" stroke="url(#g)" stroke-opacity=".7" stroke-width="1.8"/><rect x="120" y="118" width="320" height="30" rx="16" fill="url(#g)" fill-opacity=".16"/><circle cx="140" cy="133" r="4" fill="url(#g)" fill-opacity=".7"/><circle cx="156" cy="133" r="4" fill="url(#g)" fill-opacity=".7"/><circle cx="172" cy="133" r="4" fill="url(#g)" fill-opacity=".7"/><rect x="146" y="172" width="250" height="10" rx="5" fill="url(#g)" fill-opacity="0.55"/><rect x="146" y="200" width="204" height="10" rx="5" fill="url(#g)" fill-opacity="0.45"/><rect x="146" y="228" width="158" height="10" rx="5" fill="url(#g)" fill-opacity="0.35"/><rect x="146" y="256" width="112" height="10" rx="5" fill="url(#g)" fill-opacity="0.25"/><path d="M280 314v34M232 348h96" stroke="url(#g)" stroke-opacity=".5" stroke-width="2.5" stroke-linecap="round"/></svg>