<svg xmlns="http://www.w3.org/2000/svg" viewBox="0 0 560 420" fill="none" role="img" aria-hidden="true"><defs><linearGradient id="g" x1="0" y1="0" x2="560" y2="420" gradientUnits="userSpaceOnUse"><stop stop-color="#00F2FE"/><stop offset=".55" stop-color="#4EA8FF"/><stop offset="1" stop-color="#9D4EDD"/></linearGradient><linearGradient id="gv" x1="0" y1="0" x2="0" y2="420" gradientUnits="userSpaceOnUse"><stop stop-color="#00F2FE" stop-opacity=".55"/><stop offset="1" stop-color="#9D4EDD" stop-opacity=".08"/></linearGradient><radialGradient id="glow" cx="50%" cy="45%" r="55%"><stop stop-color="#00F2FE" stop-opacity=".20"/><stop offset="1" stop-color="#00F2FE" stop-opacity="0"/></radialGradient></defs><rect width="560" height="420" rx="22" fill="#0C1220"/><rect width="560" height="420" rx="22" fill="url(#glow)"/><g stroke="#fff" stroke-opacity="0.05" stroke-width="1"><path d="M40 0V420"/><path d="M80 0V420"/><path d="M120 0V420"/><path d="M160 0V420"/><path d="M200 0V420"/><path d="M240 0V420"/><path d="M280 0V420"/><path d="M320 0V420"/><path d="M360 0V420"/><path d="M400 0V420"/><path d="M440 0V420"/><path d="M480 0V420"/><path d="M520 0V420"/><path d="M0 40H560"/><path d="M0 80H560"/><path d="M0 120H560"/><path d="M0 160H560"/><path d="M0 200H560"/><path d="M0 240H560"/><path d="M0 280H560"/><path d="M0 320H560"/><path d="M0 360H560"/><path d="M0 400H560"/></g><path d="M280.0 78L388.0 122v96c0 68-46 122-108 148-62-26-108-80-108-148v-96Z" fill="url(#g)" fill-opacity=".09" stroke="url(#g)" stroke-opacity=".6" stroke-width="1.6"/><path d="M240.0 214l30 30 58-64" stroke="url(#g)" stroke-width="4" stroke-linecap="round" stroke-linejoin="round"/><rect x="220" y="286" width="120" height="9" rx="4.5" fill="url(#g)" fill-opacity="0.32"/><rect x="233" y="308" width="94" height="9" rx="4.5" fill="url(#g)" fill-opacity="0.24"/><rect x="246" y="330" width="68" height="9" rx="4.5" fill="url(#g)" fill-opacity="0.16"/></svg>