<svg xmlns="http://www.w3.org/2000/svg" viewBox="0 0 560 420" fill="none" role="img" aria-hidden="true"><defs><linearGradient id="g" x1="0" y1="0" x2="560" y2="420" gradientUnits="userSpaceOnUse"><stop stop-color="#00F2FE"/><stop offset=".55" stop-color="#4EA8FF"/><stop offset="1" stop-color="#9D4EDD"/></linearGradient><linearGradient id="gv" x1="0" y1="0" x2="0" y2="420" gradientUnits="userSpaceOnUse"><stop stop-color="#00F2FE" stop-opacity=".55"/><stop offset="1" stop-color="#9D4EDD" stop-opacity=".08"/></linearGradient><radialGradient id="glow" cx="50%" cy="45%" r="55%"><stop stop-color="#00F2FE" stop-opacity=".20"/><stop offset="1" stop-color="#00F2FE" stop-opacity="0"/></radialGradient></defs><rect width="560" height="420" rx="22" fill="#0C1220"/><rect width="560" height="420" rx="22" fill="url(#glow)"/><g stroke="#fff" stroke-opacity="0.05" stroke-width="1"><path d="M40 0V420"/><path d="M80 0V420"/><path d="M120 0V420"/><path d="M160 0V420"/><path d="M200 0V420"/><path d="M240 0V420"/><path d="M280 0V420"/><path d="M320 0V420"/><path d="M360 0V420"/><path d="M400 0V420"/><path d="M440 0V420"/><path d="M480 0V420"/><path d="M520 0V420"/><path d="M0 40H560"/><path d="M0 80H560"/><path d="M0 120H560"/><path d="M0 160H560"/><path d="M0 200H560"/><path d="M0 240H560"/><path d="M0 280H560"/><path d="M0 320H560"/><path d="M0 360H560"/><path d="M0 400H560"/></g><rect x="62" y="144" width="34" height="200" rx="6" fill="url(#gv)" stroke="url(#g)" stroke-opacity=".3"/><rect x="110" y="278" width="34" height="66" rx="6" fill="url(#gv)" stroke="url(#g)" stroke-opacity=".3"/><rect x="158" y="156" width="34" height="188" rx="6" fill="url(#gv)" stroke="url(#g)" stroke-opacity=".3"/><rect x="206" y="185" width="34" height="159" rx="6" fill="url(#gv)" stroke="url(#g)" stroke-opacity=".3"/><rect x="254" y="263" width="34" height="81" rx="6" fill="url(#gv)" stroke="url(#g)" stroke-opacity=".3"/><rect x="302" y="246" width="34" height="98" rx="6" fill="url(#gv)" stroke="url(#g)" stroke-opacity=".3"/><rect x="350" y="268" width="34" height="76" rx="6" fill="url(#gv)" stroke="url(#g)" stroke-opacity=".3"/><rect x="398" y="265" width="34" height="79" rx="6" fill="url(#gv)" stroke="url(#g)" stroke-opacity=".3"/><rect x="446" y="287" width="34" height="57" rx="6" fill="url(#gv)" stroke="url(#g)" stroke-opacity=".3"/><path d="M79 128 L127 262 L175 140 L223 169 L271 247 L319 230 L367 252 L415 249 L463 271" stroke="url(#g)" stroke-opacity=".85" stroke-width="2.2" stroke-linecap="round" stroke-linejoin="round"/><circle cx="79" cy="128" r="4.2" fill="#00F2FE"/><circle cx="127" cy="262" r="4.2" fill="#00F2FE"/><circle cx="175" cy="140" r="4.2" fill="#00F2FE"/><circle cx="223" cy="169" r="4.2" fill="#00F2FE"/><circle cx="271" cy="247" r="4.2" fill="#00F2FE"/><circle cx="319" cy="230" r="4.2" fill="#00F2FE"/><circle cx="367" cy="252" r="4.2" fill="#00F2FE"/><circle cx="415" cy="249" r="4.2" fill="#00F2FE"/><circle cx="463" cy="271" r="4.2" fill="#00F2FE"/><path d="M50 344H510" stroke="#fff" stroke-opacity=".16"/></svg>