<svg xmlns="http://www.w3.org/2000/svg" viewBox="0 0 560 420" fill="none" role="img" aria-hidden="true"><defs><linearGradient id="g" x1="0" y1="0" x2="560" y2="420" gradientUnits="userSpaceOnUse"><stop stop-color="#00F2FE"/><stop offset=".55" stop-color="#4EA8FF"/><stop offset="1" stop-color="#9D4EDD"/></linearGradient><linearGradient id="gv" x1="0" y1="0" x2="0" y2="420" gradientUnits="userSpaceOnUse"><stop stop-color="#00F2FE" stop-opacity=".55"/><stop offset="1" stop-color="#9D4EDD" stop-opacity=".08"/></linearGradient><radialGradient id="glow" cx="50%" cy="45%" r="55%"><stop stop-color="#00F2FE" stop-opacity=".20"/><stop offset="1" stop-color="#00F2FE" stop-opacity="0"/></radialGradient></defs><rect width="560" height="420" rx="22" fill="#0C1220"/><rect width="560" height="420" rx="22" fill="url(#glow)"/><g stroke="#fff" stroke-opacity="0.05" stroke-width="1"><path d="M40 0V420"/><path d="M80 0V420"/><path d="M120 0V420"/><path d="M160 0V420"/><path d="M200 0V420"/><path d="M240 0V420"/><path d="M280 0V420"/><path d="M320 0V420"/><path d="M360 0V420"/><path d="M400 0V420"/><path d="M440 0V420"/><path d="M480 0V420"/><path d="M520 0V420"/><path d="M0 40H560"/><path d="M0 80H560"/><path d="M0 120H560"/><path d="M0 160H560"/><path d="M0 200H560"/><path d="M0 240H560"/><path d="M0 280H560"/><path d="M0 320H560"/><path d="M0 360H560"/><path d="M0 400H560"/></g><g stroke="url(#g)" stroke-opacity=".42" stroke-width="1.3"><path d="M430 220L425 240"/><path d="M430 220L385 276"/><path d="M430 220L421 129"/><path d="M430 220L385 178"/><path d="M425 240L385 276"/><path d="M425 240L335 325"/><path d="M425 240L421 129"/><path d="M425 240L385 178"/><path d="M385 276L335 325"/><path d="M385 276L385 178"/><path d="M335 325L249 292"/><path d="M335 325L213 280"/><path d="M249 292L213 280"/><path d="M249 292L137 271"/><path d="M213 280L137 271"/><path d="M213 280L105 243"/><path d="M213 280L122 202"/><path d="M213 280L167 161"/><path d="M137 271L105 243"/><path d="M137 271L122 202"/><path d="M137 271L167 161"/><path d="M105 243L122 202"/><path d="M105 243L167 161"/><path d="M122 202L167 161"/><path d="M122 202L200 123"/><path d="M167 161L200 123"/><path d="M167 161L270 121"/><path d="M200 123L270 121"/><path d="M270 121L357 84"/><path d="M270 121L385 178"/><path d="M357 84L421 129"/><path d="M357 84L385 178"/><path d="M421 129L385 178"/></g><circle cx="280.0" cy="210.0" r="46" fill="url(#g)" fill-opacity=".14" stroke="url(#g)" stroke-opacity=".5"/><circle cx="430" cy="220" r="8" fill="url(#g)"/><circle cx="430" cy="220" r="15" stroke="url(#g)" stroke-opacity=".3"/><circle cx="425" cy="240" r="5.5" fill="url(#g)"/><circle cx="385" cy="276" r="5.5" fill="url(#g)"/><circle cx="335" cy="325" r="8" fill="url(#g)"/><circle cx="335" cy="325" r="15" stroke="url(#g)" stroke-opacity=".3"/><circle cx="249" cy="292" r="5.5" fill="url(#g)"/><circle cx="213" cy="280" r="5.5" fill="url(#g)"/><circle cx="137" cy="271" r="8" fill="url(#g)"/><circle cx="137" cy="271" r="15" stroke="url(#g)" stroke-opacity=".3"/><circle cx="105" cy="243" r="5.5" fill="url(#g)"/><circle cx="122" cy="202" r="5.5" fill="url(#g)"/><circle cx="167" cy="161" r="8" fill="url(#g)"/><circle cx="167" cy="161" r="15" stroke="url(#g)" stroke-opacity=".3"/><circle cx="200" cy="123" r="5.5" fill="url(#g)"/><circle cx="270" cy="121" r="5.5" fill="url(#g)"/><circle cx="357" cy="84" r="8" fill="url(#g)"/><circle cx="357" cy="84" r="15" stroke="url(#g)" stroke-opacity=".3"/><circle cx="421" cy="129" r="5.5" fill="url(#g)"/><circle cx="385" cy="178" r="5.5" fill="url(#g)"/></svg>