<svg xmlns="http://www.w3.org/2000/svg" viewBox="0 0 560 420" fill="none" role="img" aria-hidden="true"><defs><linearGradient id="g" x1="0" y1="0" x2="560" y2="420" gradientUnits="userSpaceOnUse"><stop stop-color="#00F2FE"/><stop offset=".55" stop-color="#4EA8FF"/><stop offset="1" stop-color="#9D4EDD"/></linearGradient><linearGradient id="gv" x1="0" y1="0" x2="0" y2="420" gradientUnits="userSpaceOnUse"><stop stop-color="#00F2FE" stop-opacity=".55"/><stop offset="1" stop-color="#9D4EDD" stop-opacity=".08"/></linearGradient><radialGradient id="glow" cx="50%" cy="45%" r="55%"><stop stop-color="#00F2FE" stop-opacity=".20"/><stop offset="1" stop-color="#00F2FE" stop-opacity="0"/></radialGradient></defs><rect width="560" height="420" rx="22" fill="#0C1220"/><rect width="560" height="420" rx="22" fill="url(#glow)"/><g stroke="#fff" stroke-opacity="0.05" stroke-width="1"><path d="M40 0V420"/><path d="M80 0V420"/><path d="M120 0V420"/><path d="M160 0V420"/><path d="M200 0V420"/><path d="M240 0V420"/><path d="M280 0V420"/><path d="M320 0V420"/><path d="M360 0V420"/><path d="M400 0V420"/><path d="M440 0V420"/><path d="M480 0V420"/><path d="M520 0V420"/><path d="M0 40H560"/><path d="M0 80H560"/><path d="M0 120H560"/><path d="M0 160H560"/><path d="M0 200H560"/><path d="M0 240H560"/><path d="M0 280H560"/><path d="M0 320H560"/><path d="M0 360H560"/><path d="M0 400H560"/></g><circle cx="112.0" cy="138" r="20" fill="none" stroke="url(#g)" stroke-opacity=".26" stroke-width="1.5"/><circle cx="196.0" cy="138" r="20" fill="none" stroke="url(#g)" stroke-opacity=".26" stroke-width="1.5"/><circle cx="280.0" cy="138" r="20" fill="none" stroke="url(#g)" stroke-opacity=".26" stroke-width="1.5"/><circle cx="364.0" cy="138" r="20" fill="none" stroke="url(#g)" stroke-opacity=".26" stroke-width="1.5"/><circle cx="448.0" cy="138" r="20" fill="none" stroke="url(#g)" stroke-opacity=".26" stroke-width="1.5"/><circle cx="112.0" cy="210" r="20" fill="none" stroke="url(#g)" stroke-opacity=".26" stroke-width="1.5"/><circle cx="196.0" cy="210" r="20" fill="none" stroke="url(#g)" stroke-opacity=".26" stroke-width="1.5"/><circle cx="280.0" cy="210" r="26" fill="url(#g)" fill-opacity=".22" stroke="url(#g)" stroke-opacity=".9" stroke-width="2"/><path d="M269.0 210l8 9 16-18" stroke="url(#g)" stroke-width="3" stroke-linecap="round" stroke-linejoin="round"/><circle cx="364.0" cy="210" r="20" fill="none" stroke="url(#g)" stroke-opacity=".26" stroke-width="1.5"/><circle cx="448.0" cy="210" r="20" fill="none" stroke="url(#g)" stroke-opacity=".26" stroke-width="1.5"/><circle cx="112.0" cy="282" r="20" fill="none" stroke="url(#g)" stroke-opacity=".26" stroke-width="1.5"/><circle cx="196.0" cy="282" r="20" fill="none" stroke="url(#g)" stroke-opacity=".26" stroke-width="1.5"/><circle cx="280.0" cy="282" r="20" fill="none" stroke="url(#g)" stroke-opacity=".26" stroke-width="1.5"/><circle cx="364.0" cy="282" r="20" fill="none" stroke="url(#g)" stroke-opacity=".26" stroke-width="1.5"/><circle cx="448.0" cy="282" r="20" fill="none" stroke="url(#g)" stroke-opacity=".26" stroke-width="1.5"/></svg>