<svg xmlns="http://www.w3.org/2000/svg" viewBox="0 0 560 420" fill="none" role="img" aria-hidden="true"><defs><linearGradient id="g" x1="0" y1="0" x2="560" y2="420" gradientUnits="userSpaceOnUse"><stop stop-color="#00F2FE"/><stop offset=".55" stop-color="#4EA8FF"/><stop offset="1" stop-color="#9D4EDD"/></linearGradient><linearGradient id="gv" x1="0" y1="0" x2="0" y2="420" gradientUnits="userSpaceOnUse"><stop stop-color="#00F2FE" stop-opacity=".55"/><stop offset="1" stop-color="#9D4EDD" stop-opacity=".08"/></linearGradient><radialGradient id="glow" cx="50%" cy="45%" r="55%"><stop stop-color="#00F2FE" stop-opacity=".20"/><stop offset="1" stop-color="#00F2FE" stop-opacity="0"/></radialGradient></defs><rect width="560" height="420" rx="22" fill="#0C1220"/><rect width="560" height="420" rx="22" fill="url(#glow)"/><g stroke="#fff" stroke-opacity="0.05" stroke-width="1"><path d="M40 0V420"/><path d="M80 0V420"/><path d="M120 0V420"/><path d="M160 0V420"/><path d="M200 0V420"/><path d="M240 0V420"/><path d="M280 0V420"/><path d="M320 0V420"/><path d="M360 0V420"/><path d="M400 0V420"/><path d="M440 0V420"/><path d="M480 0V420"/><path d="M520 0V420"/><path d="M0 40H560"/><path d="M0 80H560"/><path d="M0 120H560"/><path d="M0 160H560"/><path d="M0 200H560"/><path d="M0 240H560"/><path d="M0 280H560"/><path d="M0 320H560"/><path d="M0 360H560"/><path d="M0 400H560"/></g><path d="M152.0 262a128 128 0 0 1 256 0" stroke="#fff" stroke-opacity=".12" stroke-width="14" stroke-linecap="round" fill="none"/><path d="M152.0 262a128 128 0 0 1 207 -100" stroke="url(#g)" stroke-width="14" stroke-linecap="round" fill="none"/><path d="M182.0 262.0L170.0 262.0" stroke="#fff" stroke-opacity=".22" stroke-width="2"/><path d="M189.5 224.5L178.4 219.9" stroke="#fff" stroke-opacity=".22" stroke-width="2"/><path d="M210.7 192.7L202.2 184.2" stroke="#fff" stroke-opacity=".22" stroke-width="2"/><path d="M242.5 171.5L237.9 160.4" stroke="#fff" stroke-opacity=".22" stroke-width="2"/><path d="M280.0 164.0L280.0 152.0" stroke="#fff" stroke-opacity=".22" stroke-width="2"/><path d="M317.5 171.5L322.1 160.4" stroke="#fff" stroke-opacity=".22" stroke-width="2"/><path d="M349.3 192.7L357.8 184.2" stroke="#fff" stroke-opacity=".22" stroke-width="2"/><path d="M370.5 224.5L381.6 219.9" stroke="#fff" stroke-opacity=".22" stroke-width="2"/><path d="M378.0 262.0L390.0 262.0" stroke="#fff" stroke-opacity=".22" stroke-width="2"/><path d="M280.0 262L346.3 207.2" stroke="url(#g)" stroke-width="4" stroke-linecap="round"/><circle cx="280.0" cy="262" r="9" fill="url(#g)"/><rect x="222.0" y="296" width="116" height="12" rx="6" fill="url(#g)" fill-opacity=".5"/></svg>